PathFileType	4	(X/Y/Z)	..\data\2014014\dynamic\2014014_C4_04.trc
DataRate	CameraRate	NumFrames	NumMarkers	Units	OrigDataRate	OrigDataStartFrame	OrigNumFrames
100.000000	100.000000	4	48	mm	100.000000	44	178
Frame#	Time	L_IAS			L_IPS			R_IPS			R_IAS			L_FTC			L_FLE			L_FME			L_FAX			L_TTC			L_FAL			L_TAM			L_FCC			L_FM1			L_FM2			L_FM5			R_FTC			R_FLE			R_FME			R_FAX			R_TTC			R_FAL			R_TAM			R_FCC			R_FM1			R_FM2			R_FM5			CV7			TV10			SXS			SJN			L_SAA			L_SAE			L_HLE			L_HME			L_UOA			L_RSP			L_UHE			L_HM2			L_HM5			R_SAA			R_SAE			R_HLE			R_HME			R_UOA			R_RSP			R_UHE			R_HM2			R_HM5			
		X1	Y1	Z1	X2	Y2	Z2	X3	Y3	Z3	X4	Y4	Z4	X5	Y5	Z5	X6	Y6	Z6	X7	Y7	Z7	X8	Y8	Z8	X9	Y9	Z9	X10	Y10	Z10	X11	Y11	Z11	X12	Y12	Z12	X13	Y13	Z13	X14	Y14	Z14	X15	Y15	Z15	X16	Y16	Z16	X17	Y17	Z17	X18	Y18	Z18	X19	Y19	Z19	X20	Y20	Z20	X21	Y21	Z21	X22	Y22	Z22	X23	Y23	Z23	X24	Y24	Z24	X25	Y25	Z25	X26	Y26	Z26	X27	Y27	Z27	X28	Y28	Z28	X29	Y29	Z29	X30	Y30	Z30	X31	Y31	Z31	X32	Y32	Z32	X33	Y33	Z33	X34	Y34	Z34	X35	Y35	Z35	X36	Y36	Z36	X37	Y37	Z37	X38	Y38	Z38	X39	Y39	Z39	X40	Y40	Z40	X41	Y41	Z41	X42	Y42	Z42	X43	Y43	Z43	X44	Y44	Z44	X45	Y45	Z45	X46	Y46	Z46	X47	Y47	Z47	X48	Y48	Z48	

45	0.44	421.3468322753907	997.2598266601565	-119.7296566040048	214.0310516357422	1018.781860351563	-28.94627714519412	216.749496459961	1011.978332519531	68.94627714519412	422.0137939453126	998.0161743164065	159.7296566040048	326.4693298339844	897.973571777344	-168.8364664171059	270.2609863281251	498.4114379882814	-132.8068082918402	279.5557556152344	496.6173095703126	4.73616952572034	243.9584503173829	440.4058227539064	-127.5034208841393	315.5940551757813	423.6781005859376	-68.54266881243612	205.1017761230469	66.12303924560548	-119.3286701318263	232.4224700927735	100.3665237426758	-17.89666597850206	153.5865478515625	24.06600189208985	-63.35014095580774	353.0817260742188	24.07436752319337	-34.67283560363096	369.1828002929688	37.1945915222168	-75.85478284948589	317.6174621582032	15.71138763427735	-136.6788472364645	374.2640380859376	899.5942382812502	201.77977018891	507.5281372070314	509.1170654296876	168.1761551397474	541.1391601562501	514.4569702148439	39.89448362637252	475.513885498047	460.0186767578126	167.9111784980278	546.1437377929689	441.2296752929689	108.8162272066081	341.6683349609376	116.6623916625977	159.7178475624646	392.5097656250001	134.9774322509766	58.05492402872793	299.9299316406251	89.1305618286133	103.5203760469626	497.0606689453126	37.64168548583985	74.31989194537282	489.428436279297	55.14607620239259	116.2531535677032	442.6056518554689	43.95962524414063	178.1868656505937	268.4132385253907	1539.576538085938	22.33197663849248	172.5631713867188	1293.85009765625	22.33197663849248	443.1203613281251	1263.806396484375	22.33197663849248	392.8931884765626	1445.263061523438	22.23227489079067	247.3391265869141	1463.511108398438	-219.6455385149378	296.6276855468751	1459.535522460938	-176.1371861577316	352.5275573730469	1122.9990234375	-258.8717543254914	306.0954284667969	1102.60546875	-174.535390332801	315.4104309082032	1090.818969726563	-210.2361499973812	513.5386962890626	910.019714355469	-239.5967179865834	455.9070739746095	885.359313964844	-265.4190523397495	570.9613037109376	841.2005004882815	-244.7565623451693	480.2634277343751	804.8360595703127	-246.8581665756566	248.6540832519532	1446.975463867188	259.6455385149378	300.0540466308594	1441.633666992188	216.1373355492392	275.0604248046876	1104.983276367188	304.6079114146845	261.9000854492188	1091.654907226563	207.9388096802291	237.916244506836	1084.853515625	248.860189315611	378.2980957031251	852.8662719726565	279.4189228109762	307.9354553222657	856.8027954101565	306.295032088454	410.9190673828126	762.5312500000001	285.0291244398524	302.6898193359376	757.4680175781251	287.1250341336798	
46	0.45	431.3019104003907	995.6763916015627	-119.7296566040048	224.0462036132813	1018.1279296875	-28.94627714519412	227.1392211914063	1011.2314453125	68.94627714519412	432.5192260742189	997.0739746093752	159.7296566040048	335.3773498535157	896.9831542968752	-168.8364664171059	274.9839477539063	498.2855529785157	-132.8068082918402	284.5651245117188	496.452850341797	4.73616952572034	248.0345001220704	440.6054687500001	-127.5034208841393	319.5982055664063	422.944793701172	-68.54266881243612	205.3410797119141	66.47742462158205	-119.3286701318263	233.3740692138672	100.6985015869141	-17.89666597850206	153.784408569336	24.656644821167	-63.35014095580774	353.4619140625001	23.87251281738282	-34.67283560363096	369.5023193359376	37.05301666259766	-75.85478284948589	317.4802246093751	15.64309883117676	-136.6788472364645	384.9060363769532	898.7668457031252	201.77977018891	517.4970092773439	507.8257751464845	168.1761551397474	550.5746459960939	513.6447753906251	39.89448362637252	487.7795715332032	457.2154541015626	167.9111784980278	559.4617309570314	441.620330810547	108.8162272066081	376.2011108398438	105.9152603149414	159.7178475624646	426.9641723632814	126.9641876220703	58.05492402872793	337.3843078613282	75.89580535888673	103.5203760469626	536.8426513671876	36.34397506713868	74.31989194537282	527.4730224609376	53.19147109985353	116.2531535677032	480.8079833984376	39.38775253295899	178.1868656505937	278.9952697753907	1538.689453125	22.33197663849248	183.0885314941407	1293.025512695313	22.33197663849248	453.623016357422	1262.775024414063	22.33197663849248	403.401336669922	1444.322387695313	22.23227489079067	258.3306884765626	1463.103149414063	-219.6455385149378	307.9700317382813	1459.060546875	-176.1371861577316	365.8454284667969	1123.123657226563	-258.8717543254914	318.9418945312501	1102.123901367188	-174.535390332801	328.8211975097657	1090.390502929688	-210.2361499973812	529.7130126953126	912.9766235351565	-239.5967179865834	472.9638061523439	887.098815917969	-265.4190523397495	588.4431762695314	845.2229003906252	-244.7565623451693	498.7858886718751	807.0052490234377	-246.8581665756566	258.8833007812501	1445.534423828125	259.6455385149378	309.3954162597657	1440.4033203125	216.1373355492392	283.1535339355469	1103.523315429688	304.6079114146845	270.5338134765626	1090.416259765625	207.9388096802291	246.1328582763672	1083.591674804688	248.860189315611	386.1147766113282	851.1228637695315	279.4189228109762	315.0151977539063	855.1685180664065	306.295032088454	418.512176513672	761.0823364257814	285.0291244398524	309.6157226562501	755.7914428710939	287.1250341336798	
47	0.46	441.3847045898439	994.0838623046877	-119.7296566040048	234.1473999023438	1017.367004394531	-28.94627714519412	237.6048431396485	1010.325012207031	68.94627714519412	443.0697326660157	996.0530395507815	159.7296566040048	344.5312500000001	895.9619140625002	-168.8364664171059	279.9572753906251	498.1423645019532	-132.8068082918402	289.8612365722657	496.2742919921876	4.73616952572034	252.3515319824219	440.8067932128907	-127.5034208841393	323.8234863281251	422.1771545410157	-68.54266881243612	205.6262664794922	66.87419891357423	-119.3286701318263	234.4341735839844	101.0778579711914	-17.89666597850206	154.069320678711	25.31358718872071	-63.35014095580774	353.8617553710938	23.66527938842774	-34.67283560363096	369.8308410644532	36.88514709472657	-75.85478284948589	317.3273010253907	15.58967208862305	-136.6788472364645	395.3538208007814	897.6940917968752	201.77977018891	526.6049194335939	506.0996704101564	168.1761551397474	559.3764038085939	512.3955688476564	39.89448362637252	499.3299560546876	454.196258544922	167.9111784980278	572.0076293945314	441.8121948242189	108.8162272066081	410.9345092773439	96.19580841064456	159.7178475624646	461.4934387207032	120.03076171875	58.05492402872793	375.3710327148438	63.83399581909181	103.5203760469626	576.2813110351564	36.37380981445313	74.31989194537282	565.2655639648439	52.4176368713379	116.2531535677032	518.9078369140626	35.92022323608399	178.1868656505937	289.6442565917969	1537.694702148438	22.33197663849248	193.6797485351563	1292.104614257813	22.33197663849248	464.1942443847657	1261.660766601563	22.33197663849248	413.9819946289064	1443.281494140625	22.23227489079067	269.3636169433594	1462.6044921875	-219.6455385149378	319.4047241210938	1458.466918945313	-176.1371861577316	379.0163879394532	1123.15283203125	-258.8717543254914	331.6561584472657	1101.558227539063	-174.535390332801	342.0762634277344	1089.890869140625	-210.2361499973812	545.5030517578126	915.717956542969	-239.5967179865834	489.6697082519532	888.7312011718752	-265.4190523397495	605.5039062500001	849.058288574219	-244.7565623451693	516.9041137695314	809.0801391601565	-246.8581665756566	269.2657165527344	1444.005004882813	259.6455385149378	318.6806945800782	1439.145751953125	216.1373355492392	291.4395141601563	1102.015380859375	304.6079114146845	279.3599853515626	1089.122680664063	207.9388096802291	254.5405883789063	1082.2783203125	248.860189315611	394.0257568359376	849.3181762695315	279.4189228109762	322.2971801757813	853.4956665039065	306.295032088454	426.1234741210939	759.5111083984376	285.0291244398524	316.7238464355469	754.0986938476564	287.1250341336798	
48	0.47	451.5994262695314	992.495788574219	-119.7296566040048	244.3564758300782	1016.490356445313	-28.94627714519412	248.157455444336	1009.261657714844	68.94627714519412	453.6843872070314	994.9559326171877	159.7296566040048	353.9297790527344	894.9023437500002	-168.8364664171059	285.1994018554688	497.978973388672	-132.8068082918402	295.4981384277344	496.0716857910157	4.73616952572034	256.9270629882813	441.008270263672	-127.5034208841393	328.2846374511719	421.3692016601564	-68.54266881243612	205.9580230712891	67.32653808593751	-119.3286701318263	235.6054077148438	101.5073471069336	-17.89666597850206	154.4497375488282	26.05537986755372	-63.35014095580774	354.2764892578126	23.45701980590821	-34.67283560363096	370.1660156250001	36.6955795288086	-75.85478284948589	317.1611328125001	15.56479263305664	-136.6788472364645	405.6363525390626	896.3911743164065	201.77977018891	534.9306640625001	503.9978027343751	168.1761551397474	567.6440429687501	510.7962646484376	39.89448362637252	510.212860107422	451.035369873047	167.9111784980278	583.8282470703126	441.8471679687501	108.8162272066081	445.5484619140626	87.67970275878908	159.7178475624646	495.7699584960939	114.2932586669922	58.05492402872793	413.5022277832032	53.12331771850587	103.5203760469626	615.0241088867189	37.7784538269043	74.31989194537282	602.4835815429689	52.8907814025879	116.2531535677032	556.5959472656251	33.66171646118165	178.1868656505937	300.3578186035157	1536.598266601563	22.33197663849248	204.3401031494141	1291.088500976563	22.33197663849248	474.837615966797	1260.47509765625	22.33197663849248	424.6352844238282	1442.14990234375	22.23227489079067	280.4323425292969	1462.015014648438	-219.6455385149378	330.9096374511719	1457.765502929688	-176.1371861577316	392.0292968750001	1123.094360351563	-258.8717543254914	344.2394104003907	1100.919799804688	-174.535390332801	355.1704101562501	1089.328979492188	-210.2361499973812	560.9098510742189	918.236999511719	-239.5967179865834	506.0078735351564	890.2481079101565	-265.4190523397495	622.1281738281251	852.678649902344	-244.7565623451693	534.5906982421876	811.0480957031252	-246.8581665756566	279.7840270996094	1442.398681640625	259.6455385149378	327.9618225097657	1437.8583984375	216.1373355492392	299.9237976074219	1100.46533203125	304.6079114146845	288.3822326660157	1087.785278320313	207.9388096802291	263.1455383300782	1080.9208984375	248.860189315611	402.0374145507814	847.4671630859377	279.4189228109762	329.7956848144532	851.7940673828127	306.295032088454	433.7521362304689	757.8219604492189	285.0291244398524	324.0240478515626	752.4011230468751	287.1250341336798	
